<svg xmlns="http://www.w3.org/2000/svg" width="444.669" height="443.781" viewBox="0 0 444.669 443.781">
  <g id="Group_270" data-name="Group 270" transform="translate(154.588 -338.339) rotate(48)">
    <path id="Path_355" data-name="Path 355" d="M1798.967,223.773h-.591q-.983,0-1.962.019h-.029l-.108,0-.456.009,2.468,125.788.678-.007V223.773Zm-28.152,2.514-.176.032-.059.011-.091.016-.186.035-.013,0-.115.021-.016,0-.215.04-.024,0-.333.062-.049.01-.144.027-.083.016-.079.015-.113.023-.092.018-.094.017-.082.016-.1.02-.135.026-.017,0c-.286.056-.583.115-.868.173l24.856,123.329.606-.115-22.375-123.8Zm-27.24,7.526q-.547.2-1.091.415l-.021.008-.143.056c-.033.012-.056.02-.088.034l-.037.013q-.63.245-1.257.494l-.087.034-.046.018-.161.064,46.683,116.825.57-.221-44.321-117.74Zm-25.44,12.311-.195.118q-1,.6-1.983,1.215l0,0-.14.087-.075.047-.021.013-.263.164,66.9,106.537.536-.329-64.758-107.853Zm-22.824,16.671q-.656.574-1.3,1.158l-.031.027-.113.1-.057.052-.057.051-.124.112-.023.022q-.318.286-.633.575l84.824,92.892.479-.43-82.961-94.559Zm-19.491,20.471q-.425.536-.846,1.074l-.016.019-.088.114-.054.069-.057.072-.057.073-.015.019-.128.165-.007.009q-.335.432-.666.866l100,76.3.393-.505-98.463-78.278Zm-15.53,23.619q-.275.515-.547,1.031l-.009.018-.081.154-.018.034-.066.128-.022.041-.069.133-.023.045-.075.144a.3.3,0,0,0-.016.031l-.077.148,0,.008-.086.166-.006.012c-.12.231-.238.463-.356.695l112.037,57.171.288-.551L1660.29,306.884Zm-11.039,26.023-.007.02-.051.162,0,.006c-.019.061-.038.122-.058.183l0,.005c-.1.31-.2.621-.293.932l0,0q-.262.843-.516,1.692l120.5,36.043.18-.582-119.749-38.466Zm-6.17,27.587q-.051.387-.1.773l0,.023-.018.147c0,.016,0,.034-.006.049-.006.05-.012.1-.018.151,0,.02-.005.045-.008.065,0,.04-.009.08-.015.12,0,.016,0,.031-.005.046-.007.055-.013.111-.02.166,0,.01,0,.025,0,.035q-.092.773-.178,1.547L1767.72,377.4l.076-.628-124.715-16.276Zm124.482,22.186-125.626,6.064q.028.591.061,1.179v0c0,.063.007.126.01.189v.009c0,.055.006.111.01.166,0,.022,0,.041,0,.062l.007.107c0,.037,0,.081.007.117l0,.083.005.093,0,.068c0,.047.006.1.009.15l0,.076c0,.031,0,.053.005.084l.009.143c0,.021,0,.039,0,.059l.009.146c0,.005,0,.014,0,.019.008.129.016.258.026.387l125.482-8.551-.039-.654Zm.772,5.613-122.514,28.453c.038.159.076.323.113.481,0,.017.008.035.012.052s.014.057.019.082c.011.044.021.089.031.132l.013.056.027.115.016.063.033.136c.007.03.014.061.021.09l.012.049c.145.6.292,1.2.444,1.8l121.916-30.916-.145-.593Zm1.72,5.209L1654.68,443.59l.027.062.022.05c.153.352.31.709.466,1.059,0,.009.007.016.009.024.043.1.09.2.132.3l.031.069c.014.032.034.076.047.107s.029.063.042.095.018.041.029.064l.059.132c.009.018.017.037.025.055.017.035.033.071.049.107.007.018.019.042.027.061.016.038.034.077.052.116l.034.074c.01.022.019.044.029.064l.071.157.006.014c.042.091.079.175.121.265l114.345-52.4-.251-.562Zm2.688,4.919L1668.223,468.4q.6.9,1.213,1.786l0,.005.1.149.029.042.055.079L1670,471l103.1-72.054-.358-.524Zm3.618,4.478-90.378,87.494.4.416.027.027.084.086c.562.577,1.123,1.142,1.695,1.709l88.622-89.274-.453-.458Zm4.367,3.774-73.355,102.2q1.109.8,2.232,1.575l.079.055.021.014.24.165,71.3-103.64-.52-.366Zm4.854,2.866-53.865,113.69q.706.335,1.417.663l.011,0,.159.073.047.022.1.044.149.068.023.011c.317.145.635.289.953.432l51.57-114.75-.56-.258Zm5.156,1.9-32.493,121.541c1.007.269,2.032.532,3.045.781l30.039-122.17-.591-.152Zm5.516.948-10.16,125.4.184.015.034,0,.132.011.1.008.085.006.114.009h0c.826.063,1.651.12,2.481.171l7.671-125.576-.647-.046Zm6.574-.114-.633.068,12.162,125.222q1.569-.152,3.128-.336l-14.658-124.953Zm5.424-1.136-.583.172,34.458,121,.724-.208.075-.021.041-.011c.726-.212,1.453-.43,2.176-.65l-36.89-120.278Zm5.1-2.09-.553.28,55.692,112.805c.717-.354,1.437-.716,2.147-1.082l.132-.068.008,0,.519-.268-57.946-111.664Zm4.776-3.057-.509.386L1892.6,507.378q1.262-.938,2.506-1.9l-76.98-99.493Zm4.237-3.935-.436.475,91.765,86.038.04-.043.024-.025.138-.148.01-.01c.08-.087.156-.167.236-.254l.005-.005.141-.153.029-.031.084-.091.068-.074.057-.061.082-.089.043-.048.094-.1c.01-.011.016-.016.025-.028l.117-.127.016-.018.387-.424,0,0,.241-.265.036-.039.088-.1.16-.178-93.456-84.2Zm3.441-4.586-.337.534,105.63,68.292c.124-.19.251-.389.374-.58l.008-.013c.062-.1.119-.184.179-.28.011-.016.022-.033.032-.049.029-.046.056-.088.084-.134l.032-.05.095-.149c.007-.012.014-.023.021-.034l.055-.087c.008-.014.018-.027.026-.041l.089-.141.03-.047.05-.08.07-.111.038-.062.071-.113.02-.031.1-.154h0l.311-.5-106.973-66.167Zm2.494-4.982-.23.568,116.171,48.214,0-.007c.019-.047.039-.093.058-.141.009-.023.016-.04.026-.063l.054-.132c.009-.023.016-.036.025-.06s.03-.073.045-.11l.017-.042c.022-.051.042-.1.063-.153l.014-.034q.444-1.084.871-2.176L1828.3,392.481Zm1.529-5.272-.125.6,122.958,26.467q.081-.371.159-.745l.009-.048c.011-.052.022-.1.034-.156,0-.016,0-.023.007-.037.011-.048.02-.1.03-.145,0-.01,0-.023.006-.032q.2-.957.386-1.918L1829.83,387.209Zm.577-5.732-.014.671,125.706,4.071q.031-.969.051-1.941c0-.011,0-.031,0-.041,0-.054,0-.107,0-.161,0-.016,0-.048,0-.063,0-.032,0-.064,0-.1s0-.057,0-.084l0-.132c0-.032,0-.059,0-.091s0-.052,0-.077,0-.082,0-.119,0-.074,0-.11,0-.042,0-.068l0-.159v0l-125.762-1.6Zm123.611-26.6-124.046,20.771.1.617,124.438-18.281c-.011-.082-.026-.171-.037-.253-.005-.033-.01-.067-.016-.1l-.007-.047q-.159-1.063-.331-2.121a.054.054,0,0,1,0-.013c-.008-.044-.015-.089-.023-.133-.023-.147-.048-.293-.073-.439Zm-7.167-27.345-118.272,42.8.2.575,119.11-40.4-.005-.017c-.015-.046-.03-.092-.046-.137l-.027-.075c-.008-.025-.017-.052-.026-.077l-.05-.148-.012-.036c-.205-.6-.416-1.2-.629-1.8-.005-.017-.011-.034-.018-.051-.014-.038-.026-.072-.039-.109-.062-.174-.124-.348-.187-.521Zm-11.975-25.6-108.65,63.375.31.544,109.9-61.187q-.572-1.03-1.16-2.048l-.008-.013-.066-.116-.322-.555Zm-16.37-23.045-95.591,81.763.413.492,97.2-79.845q-1-1.216-2.02-2.411Zm-20.212-19.759-79.516,97.477.494.41,81.439-95.875-.332-.281-.109-.092-.012-.01q-.975-.823-1.963-1.629Zm-23.41-15.838-60.821,110.122.544.308,63.015-108.881-.16-.092-.02-.011-.119-.069q-.816-.47-1.638-.931l-.051-.028-.086-.048-.142-.079-.008,0-.514-.284Zm-25.869-11.381L1809,351.184l.574.2,42.408-118.443q-1.191-.427-2.389-.835l-.067-.022-.053-.018c-.152-.053-.309-.105-.461-.156Zm-27.5-6.53-17.883,124.532.616.1,20.375-124.15c-.289-.047-.572-.093-.861-.138l-.009,0c-.73-.116-1.455-.226-2.189-.331h0l-.046-.007Z" transform="translate(-1337.686 -56.037)" fill="#ccd258"/>
    <g id="Group_259" data-name="Group 259" transform="translate(255.419 102.73)">
      <g id="Group_258" data-name="Group 258">
        <g id="Group_257" data-name="Group 257">
          <path id="Path_356" data-name="Path 356" d="M1575.18,399.777a3.309,3.309,0,0,1-1.572,2.215,3.567,3.567,0,0,1-2.655.148,4.875,4.875,0,0,1-.715-.272q-.408-.186-.869-.388l-9.654-4.48-1.345,4.855-2.842-1.3.909-3.282a2.377,2.377,0,0,0,.014-1.579,2.309,2.309,0,0,0-1.2-1.033l-4.236-1.984.947-3.418,5.938,2.75,1.971-7.111,2.842,1.3-1.98,7.145,11.152,5.189.531-.589-2.893-8.018,2.69-1.206,1.463,3.756q.566,1.408.94,2.451a14.836,14.836,0,0,1,.558,1.9,7.957,7.957,0,0,1,.193,1.563A4.959,4.959,0,0,1,1575.18,399.777Z" transform="translate(-1551.011 -233.359)" fill="#ccd258"/>
          <path id="Path_357" data-name="Path 357" d="M1589.8,363.48l-13.2-7.99-1.751,4.381-2.668-1.64,3.161-7.905,4.48,2.746.079-.2a10.464,10.464,0,0,1-2.534-3.841,6.223,6.223,0,0,1,.279-4.474l.79-1.976,3.288,2-1.186,2.965a6.53,6.53,0,0,0-.549,2.474,4.35,4.35,0,0,0,.6,2.091,15.064,15.064,0,0,0,.922,1.42,5.813,5.813,0,0,0,1.766,1.6l7.932,4.815Z" transform="translate(-1560.814 -213.772)" fill="#ccd258"/>
          <path id="Path_358" data-name="Path 358" d="M1609.492,327.7a8.385,8.385,0,0,1-2,2.549,6.473,6.473,0,0,1-2.487,1.306,6.8,6.8,0,0,1-2.836.115,9.774,9.774,0,0,1-3.067-1.074,14.01,14.01,0,0,1-3.811-2.879,10.5,10.5,0,0,1-2.168-3.51,9.147,9.147,0,0,1-.516-3.855,9.771,9.771,0,0,1,1.158-3.865,8.365,8.365,0,0,1,2-2.549,6.484,6.484,0,0,1,2.487-1.307,6.8,6.8,0,0,1,2.852-.106,9.84,9.84,0,0,1,3.051,1.065,14.006,14.006,0,0,1,3.811,2.88,10.471,10.471,0,0,1,2.168,3.51,9.114,9.114,0,0,1,.516,3.854A9.779,9.779,0,0,1,1609.492,327.7Zm-2.544-1.64a4.806,4.806,0,0,0,.483-3.8,6.753,6.753,0,0,0-2.514-3.313l-1.882-1.447c-.269-.2-.522-.379-.755-.544a6.179,6.179,0,0,0-.632-.4,3.914,3.914,0,0,0-3.137-.488,4.024,4.024,0,0,0-2.206,2.06,4.808,4.808,0,0,0-.482,3.8,6.748,6.748,0,0,0,2.514,3.313l1.882,1.447q.4.3.755.544a6,6,0,0,0,.633.4,3.911,3.911,0,0,0,3.136.488A4.017,4.017,0,0,0,1606.948,326.058Z" transform="translate(-1570.252 -199.807)" fill="#ccd258"/>
          <path id="Path_359" data-name="Path 359" d="M1609.734,286.8l2.143-3.133,3.172,3.029.08-.117a15.821,15.821,0,0,1-.955-2.029,7.894,7.894,0,0,1-.483-1.964,5.347,5.347,0,0,1,.146-1.941,6.341,6.341,0,0,1,.934-1.962,4.89,4.89,0,0,1,3.9-2.428,8.71,8.71,0,0,1,5.105,1.837,18.812,18.812,0,0,1,3.311,2.889,12.819,12.819,0,0,1,2.3,3.486,8.947,8.947,0,0,1,.772,3.773,6.766,6.766,0,0,1-1.275,3.749,5.322,5.322,0,0,1-2.674,2.212,5.048,5.048,0,0,1-3.265-.128l-.1.146,7.618,7.275-2.143,3.133Zm15.937,4.412a4.689,4.689,0,0,0,.888-3.842,7.21,7.21,0,0,0-2.079-3.464l-1.838-1.773a5.86,5.86,0,0,0-.54-.5c-.212-.172-.424-.333-.639-.48a4.554,4.554,0,0,0-2.739-.928,2.9,2.9,0,0,0-2.267,1.459,4.843,4.843,0,0,0-.542,4.186,8.617,8.617,0,0,0,.735,1.879,7.35,7.35,0,0,0,1.453,1.9l2.676,2.561a2.654,2.654,0,0,0,2.484.861A4.013,4.013,0,0,0,1625.671,291.216Z" transform="translate(-1578.197 -183.064)" fill="#ccd258"/>
          <path id="Path_360" data-name="Path 360" d="M1635.143,242.958a2.677,2.677,0,0,1-1.617,1.09,1.666,1.666,0,0,1-1.283-.4,4.047,4.047,0,0,1-.355-.352,6.119,6.119,0,0,1-.393-.476,2.586,2.586,0,0,1-.633-1.594,2.908,2.908,0,0,1,.861-1.856,2.677,2.677,0,0,1,1.618-1.089,1.661,1.661,0,0,1,1.282.4,4.36,4.36,0,0,1,.357.353c.129.142.26.3.391.476a2.6,2.6,0,0,1,.633,1.6A2.908,2.908,0,0,1,1635.143,242.958Zm15.409,15.928a3.386,3.386,0,0,1-2.336,1.361,3.189,3.189,0,0,1-2.3-.855,5.973,5.973,0,0,1-.654-.655q-.3-.353-.719-.851l-6.6-8.325-4.019,4.685-2.019-2.386,6.537-7.621,9.719,12.263.677-.354-.285-8.331,2.89-.372.3,3.9q.119,1.551.12,2.721a14.887,14.887,0,0,1-.12,2.047,5.891,5.891,0,0,1-.41,1.541A4.852,4.852,0,0,1,1650.552,258.886Z" transform="translate(-1587.978 -165.48)" fill="#ccd258"/>
          <path id="Path_361" data-name="Path 361" d="M1681.11,233.967a6.8,6.8,0,0,1-5.366,2.161,8.219,8.219,0,0,1-5.2-2.853,14.323,14.323,0,0,1-2.625-3.837,10.747,10.747,0,0,1-1.013-4.011,9.262,9.262,0,0,1,.639-3.832,9.086,9.086,0,0,1,2.3-3.326,9.257,9.257,0,0,1,2.146-1.55,6.037,6.037,0,0,1,2.079-.635,5.472,5.472,0,0,1,1.953.139,6.263,6.263,0,0,1,1.77.772l-1.357,3.169a3.865,3.865,0,0,0-2.427-.618,4.36,4.36,0,0,0-2.262,1.269,4.6,4.6,0,0,0-1.533,3.164,6.582,6.582,0,0,0,1.327,3.983l1.2,1.8c.192.275.368.514.529.721s.33.4.508.593a3.526,3.526,0,0,0,5.591.205,5.441,5.441,0,0,0,.755-.879,3.554,3.554,0,0,0,.518-1.263,9.941,9.941,0,0,0,.2-1.938,20.378,20.378,0,0,0-.194-2.905l2.9-.584a21.105,21.105,0,0,1,.39,3.062,11.255,11.255,0,0,1-.173,2.667,7.536,7.536,0,0,1-.893,2.368A9.6,9.6,0,0,1,1681.11,233.967Z" transform="translate(-1604.66 -155.192)" fill="#ccd258"/>
          <path id="Path_362" data-name="Path 362" d="M1708.458,208.108a4.623,4.623,0,0,1-4.341.955,8.963,8.963,0,0,1-4.2-3.409,19.475,19.475,0,0,1-2.225-3.787,13.083,13.083,0,0,1-1.1-4.008,8.73,8.73,0,0,1,.422-3.779,6.542,6.542,0,0,1,2.353-3.1,4.668,4.668,0,0,1,6.208-.006l.141-.107-1.555-2.957,3.034-2.28,7.151,13.708,1.787-1.343,1.407,2.759-1.843,1.386a3.332,3.332,0,0,1-2.667.85,2.838,2.838,0,0,1-1.9-1.676l-.44-.823-.113.085a11.335,11.335,0,0,1,.11,4.222A5.309,5.309,0,0,1,1708.458,208.108Zm-.634-3.384a4.709,4.709,0,0,0,1.8-3.747,9.761,9.761,0,0,0-.123-1.994,7.317,7.317,0,0,0-.769-2.263l-1.713-3.284a2.706,2.706,0,0,0-2.048-1.634,3.834,3.834,0,0,0-2.82.943,4.379,4.379,0,0,0-1.959,3.269,7.535,7.535,0,0,0,.916,3.905l1.172,2.269a5.506,5.506,0,0,0,.353.646q.216.348.451.659a4.785,4.785,0,0,0,2.255,1.789A2.628,2.628,0,0,0,1707.824,204.725Z" transform="translate(-1618.383 -141.11)" fill="#ccd258"/>
          <path id="Path_363" data-name="Path 363" d="M1737.93,181.73a3.3,3.3,0,0,1-2.665.55,3.416,3.416,0,0,1-1.9-1.636,10.438,10.438,0,0,1-.759-1.695l-6.384-17.7-5.186,3.079-1.118-2.926,8.511-5.053,8.042,22.373.767-.166,2.515-8.135,2.826.591-1.1,4.12q-.415,1.525-.8,2.619a12.688,12.688,0,0,1-.8,1.855,6.172,6.172,0,0,1-.895,1.273A4.834,4.834,0,0,1,1737.93,181.73Z" transform="translate(-1629.208 -127.551)" fill="#ccd258"/>
          <path id="Path_364" data-name="Path 364" d="M1870.888,133.406a2.969,2.969,0,0,1-2.253-.351,2.513,2.513,0,0,1-1.053-1.729,4.922,4.922,0,0,1-.046-.937l.675-24.506,3.82-.655-.7,24.812,2.644-.454-.076,3.3Z" transform="translate(-1697.545 -103.886)" fill="#ccd258"/>
          <path id="Path_365" data-name="Path 365" d="M1903.022,135.861a3.021,3.021,0,0,1-2.115-.506,2.348,2.348,0,0,1-.909-1.8,4.533,4.533,0,0,1,.026-1.086l.093-.718-.149.012a10.956,10.956,0,0,1-2.337,3.774,5.548,5.548,0,0,1-3.565,1.478,4.866,4.866,0,0,1-4.278-1.606,8.425,8.425,0,0,1-1.856-5.049,19.04,19.04,0,0,1,.243-4.954,14.118,14.118,0,0,1,1.507-4.344,9.928,9.928,0,0,1,2.686-3.147,7.027,7.027,0,0,1,3.777-1.4,5.485,5.485,0,0,1,3.347.726,4.054,4.054,0,0,1,1.884,2.562l.186-.015.376-3.282,3.864-.306-1.96,16.343,2.489-.2-.376,3.282Zm-7.731-2.267a4.167,4.167,0,0,0,2.058-.686,6.757,6.757,0,0,0,1.547-1.469,8.666,8.666,0,0,0,1.778-4.477l.471-3.962a2.752,2.752,0,0,0-.932-2.338,3.661,3.661,0,0,0-1.31-.72,4.518,4.518,0,0,0-1.752-.179,4.652,4.652,0,0,0-3.351,1.592,7.554,7.554,0,0,0-1.513,4.027l-.343,2.756q-.039.452-.051,1.013c-.007.374,0,.711.024,1.008a4.343,4.343,0,0,0,.971,2.6A2.717,2.717,0,0,0,1895.291,133.593Z" transform="translate(-1706.961 -108.966)" fill="#ccd258"/>
          <path id="Path_366" data-name="Path 366" d="M1936.566,131.276a3.754,3.754,0,0,1-2.615-.828,2.817,2.817,0,0,1-.8-2.176q0-.3.049-.67t.125-.744l2.55-11.735-2.832-.049.688-3.231,1.453.025a1.911,1.911,0,0,0,1.48-.422,3.07,3.07,0,0,0,.6-1.443l.729-3.38,3.614.062-1.135,5.274,3.876.067-.69,3.231-3.913-.067-2.792,12.849,3.764.065-.689,3.231Z" transform="translate(-1727.874 -104.533)" fill="#ccd258"/>
          <path id="Path_367" data-name="Path 367" d="M1960.167,130.058a2.971,2.971,0,0,1-2.094-.9,2.514,2.514,0,0,1-.587-1.938,4.941,4.941,0,0,1,.189-.919l4.467-15.524,3.863.321-4.566,15.814,2.489.207-.9,3.179Zm4.972-22.512a2.262,2.262,0,0,1-1.523-.575,1.458,1.458,0,0,1-.39-1.154,7.921,7.921,0,0,1,.293-1.285,2.761,2.761,0,0,1,.9-1.365,2.657,2.657,0,0,1,1.942-.418,2.265,2.265,0,0,1,1.523.575,1.461,1.461,0,0,1,.39,1.154,7.8,7.8,0,0,1-.294,1.285,2.764,2.764,0,0,1-.9,1.365A2.65,2.65,0,0,1,1965.14,107.546Z" transform="translate(-1739.185 -102.73)" fill="#ccd258"/>
          <path id="Path_368" data-name="Path 368" d="M1976.86,138.7l7.115-18.439,3.82.66-1.511,3.937.184.031a9.738,9.738,0,0,1,3.076-2.929,5.568,5.568,0,0,1,3.762-.542,4.583,4.583,0,0,1,3.347,1.977,5.629,5.629,0,0,1,.541,3.989,10.458,10.458,0,0,1-.286,1.218q-.178.593-.451,1.3l-3.216,8.333,2.314.4-1.176,3.088-2.9-.5a2.873,2.873,0,0,1-1.821-.957,2.294,2.294,0,0,1-.405-1.924c.025-.147.047-.275.066-.385a2.555,2.555,0,0,1,.159-.483l3.079-7.978a10.582,10.582,0,0,0,.569-1.982,2.965,2.965,0,0,0-.249-2.066,2.437,2.437,0,0,0-1.792-1.009,4.413,4.413,0,0,0-3.621,1.039,9.2,9.2,0,0,0-1.747,1.8,8.848,8.848,0,0,0-1.2,2.156l-3.831,9.929Z" transform="translate(-1748.16 -110.846)" fill="#ccd258"/>
          <path id="Path_369" data-name="Path 369" d="M2027.043,150.536a7.085,7.085,0,0,1-4.5-3.464,8.173,8.173,0,0,1-.243-6.289,14.887,14.887,0,0,1,2.055-4.329,12.756,12.756,0,0,1,3.091-3.167,9.88,9.88,0,0,1,3.77-1.647,8.45,8.45,0,0,1,4.135.209,7.087,7.087,0,0,1,4.5,3.464,8.17,8.17,0,0,1,.243,6.289,14.8,14.8,0,0,1-2.06,4.347,12.829,12.829,0,0,1-3.086,3.15,9.884,9.884,0,0,1-3.769,1.646A8.449,8.449,0,0,1,2027.043,150.536Zm1.2-3.026a4.385,4.385,0,0,0,3.438-.392,7.489,7.489,0,0,0,2.919-3.242l1.487-2.8a4.829,4.829,0,0,0,.3-.615c.094-.233.18-.481.258-.744a4.155,4.155,0,0,0-.1-3.019,3.57,3.57,0,0,0-2.4-1.821,4.381,4.381,0,0,0-3.438.393,7.471,7.471,0,0,0-2.918,3.241l-1.488,2.8a5.942,5.942,0,0,0-.3.634,7.138,7.138,0,0,0-.253.726,4.153,4.153,0,0,0,.1,3.019A3.571,3.571,0,0,0,2028.247,147.51Z" transform="translate(-1768.967 -116.037)" fill="#ccd258"/>
          <path id="Path_370" data-name="Path 370" d="M2149.141,215.625a4.813,4.813,0,0,1-2.116-3.678,6.869,6.869,0,0,1,1.8-4.268,20.14,20.14,0,0,1,3.379-3.263,17.765,17.765,0,0,1,4.312-2.491,11.438,11.438,0,0,1,4.64-.843,7.193,7.193,0,0,1,4.36,1.68,5.582,5.582,0,0,1,2.178,3.154,3.535,3.535,0,0,1-.751,3.052,3.679,3.679,0,0,1-2.026,1.337,2.523,2.523,0,0,1-2.264-.572,1.853,1.853,0,0,1-.819-1.422,2.171,2.171,0,0,1,.507-1.408,2.781,2.781,0,0,1,1.6-.918,2.725,2.725,0,0,1,2.241.6l.209-.262a4.3,4.3,0,0,0-1.523-2.033,4.047,4.047,0,0,0-1.393-.735,3.493,3.493,0,0,0-1.738-.007,9.507,9.507,0,0,0-2.3.9,21.931,21.931,0,0,0-3.052,2.02q-1.3.965-2.556,2.059a16.07,16.07,0,0,0-2,2.024q-1.982,2.472-.091,3.986a4.521,4.521,0,0,0,3.331.879,15.654,15.654,0,0,0,4.707-1.315l.617,1.258a31.062,31.062,0,0,1-3.365,1.339,11.447,11.447,0,0,1-2.92.574,7.029,7.029,0,0,1-2.581-.325A7.6,7.6,0,0,1,2149.141,215.625Z" transform="translate(-1826.938 -148.26)" fill="#ccd258"/>
          <path id="Path_371" data-name="Path 371" d="M2169.905,229.262a2.638,2.638,0,0,1-1.039-2.031,2.665,2.665,0,0,1,.712-1.728,4.473,4.473,0,0,1,.715-.607q.436-.306.77-.557L2182,217.2l-2.351-2.178,1.441-.952,6.615,4.047-15.08,9.857.289.675,5.731-.482.313,1.307-3.879.622a8.3,8.3,0,0,1-3.305.113A4.167,4.167,0,0,1,2169.905,229.262Zm19.39-14.4a2.179,2.179,0,0,1-.81-1.538,1.847,1.847,0,0,1,.49-1.351,3.088,3.088,0,0,1,.638-.525,2.584,2.584,0,0,1,1.711-.447,2.819,2.819,0,0,1,1.678.793,2.177,2.177,0,0,1,.809,1.539,1.85,1.85,0,0,1-.489,1.35c-.085.091-.182.187-.292.288a1.428,1.428,0,0,1-.347.237,2.58,2.58,0,0,1-1.71.448A2.82,2.82,0,0,1,2189.3,214.864Z" transform="translate(-1837.048 -152.85)" fill="#ccd258"/>
          <path id="Path_372" data-name="Path 372" d="M2196.962,235.94l-2.185-2.344,1.506-.844,6.048,4.247-6.131,3.372.172.349q1.685-.653,3.083-1.039a11.613,11.613,0,0,1,2.547-.438,5.236,5.236,0,0,1,2.086.3,4.357,4.357,0,0,1,1.675,1.14,3.259,3.259,0,0,1,1.029,2.225,2.587,2.587,0,0,1-.886,1.92,3.013,3.013,0,0,1-1.927.829,2.379,2.379,0,0,1-1.948-.833,2.167,2.167,0,0,1-.648-1.46A1.769,1.769,0,0,1,2202,242a2.331,2.331,0,0,1,.915-.521,2.9,2.9,0,0,1,.954-.151l.039-.341a3.894,3.894,0,0,0-2.636-.4,22.561,22.561,0,0,0-4.292.944q-.747.238-1.788.6t-2.192.846q-1.151.487-2.358,1.052t-2.282,1.159l-3.63,2.008-2.746-2.944Z" transform="translate(-1843.121 -162.924)" fill="#ccd258"/>
          <path id="Path_373" data-name="Path 373" d="M2206.692,274.317a4.811,4.811,0,0,1-1.231-4.06,6.875,6.875,0,0,1,2.714-3.752,20.131,20.131,0,0,1,4.028-2.416,17.734,17.734,0,0,1,4.764-1.452,11.424,11.424,0,0,1,4.71.226,7.2,7.2,0,0,1,3.87,2.621,5.588,5.588,0,0,1,1.409,3.564,3.539,3.539,0,0,1-1.42,2.8,3.681,3.681,0,0,1-2.276.846,2.523,2.523,0,0,1-2.076-1.069,1.85,1.85,0,0,1-.478-1.569,2.172,2.172,0,0,1,.813-1.257,2.777,2.777,0,0,1,1.761-.535,2.722,2.722,0,0,1,2.046,1.092l.263-.207a4.3,4.3,0,0,0-1.025-2.324,4.032,4.032,0,0,0-1.191-1.03,3.493,3.493,0,0,0-1.691-.4,9.468,9.468,0,0,0-2.444.36,21.789,21.789,0,0,0-3.429,1.28q-1.485.646-2.955,1.427a16.058,16.058,0,0,0-2.41,1.519q-2.488,1.961-.989,3.863a4.53,4.53,0,0,0,3.048,1.608,15.68,15.68,0,0,0,4.882-.218l.316,1.365a30.99,30.99,0,0,1-3.581.544,11.38,11.38,0,0,1-2.974-.1,7.035,7.035,0,0,1-2.441-.9A7.613,7.613,0,0,1,2206.692,274.317Z" transform="translate(-1853.95 -176.692)" fill="#ccd258"/>
          <path id="Path_374" data-name="Path 374" d="M2223.374,295.332a3.158,3.158,0,0,1-.577-2.662,3.708,3.708,0,0,1,1.655-2.012,7.468,7.468,0,0,1,1.022-.545,9.535,9.535,0,0,1,1.187-.428l11.145-3.468-1.749-2.73,1.633-.56,5.489,5.735-15.453,4.767a3.388,3.388,0,0,0-.75.347.89.89,0,0,0-.354,1.378,3.354,3.354,0,0,0,1.894,1.2,13,13,0,0,0,3.362.525,24.343,24.343,0,0,0,4.282-.244,25.614,25.614,0,0,0,4.659-1.1l5.119-1.731,2.171,3.389-16.653,5.58.111.726,5.668.971-.024,1.343-3.912-.371a8.552,8.552,0,0,1-3.244-.709,3.931,3.931,0,0,1-1.5-1.3,2.341,2.341,0,0,1-.43-2.093,2.769,2.769,0,0,1,1.124-1.406,5.375,5.375,0,0,1,.944-.472q.532-.209.94-.337l2.455-.821-.107-.374q-1.569.119-3.079.158a13.59,13.59,0,0,1-2.824-.2,8.182,8.182,0,0,1-2.4-.83A4.924,4.924,0,0,1,2223.374,295.332Z" transform="translate(-1861.969 -186.153)" fill="#ccd258"/>
          <path id="Path_375" data-name="Path 375" d="M2242.883,327.084a2.481,2.481,0,0,1,.938-3.655,5.319,5.319,0,0,1,.867-.352c.336-.108.642-.192.92-.254l21.194-5.195-1.5-2.835,1.675-.419,4.9,6.012-26,6.383.049.733,5.567,1.446-.137,1.337-3.867-.7a8.309,8.309,0,0,1-3.156-.99A4.163,4.163,0,0,1,2242.883,327.084Z" transform="translate(-1871.109 -200.711)" fill="#ccd258"/>
          <path id="Path_376" data-name="Path 376" d="M2252.787,351.185a3.271,3.271,0,0,1,.161-3.33,7.8,7.8,0,0,1,3.448-2.461,19.581,19.581,0,0,1,4.773-1.3,19.267,19.267,0,0,1,5.14-.1,12.2,12.2,0,0,1,4.507,1.4,6.443,6.443,0,0,1,2.9,3.2,4.212,4.212,0,0,1,.3,2.79,4.45,4.45,0,0,1-1.831,2.36l.146.343,3.488.58.789,1.852-17.365,2.7-.012.735,5.429,1.9-.247,1.321-3.8-1.017a11.7,11.7,0,0,1-2.96-1.149,3.253,3.253,0,0,1-1.321-1.483,2.379,2.379,0,0,1-.1-2.127,2.725,2.725,0,0,1,1.351-1.2,6.284,6.284,0,0,1,1-.323,9.754,9.754,0,0,1,.972-.191l2.276-.362-.043-.387q-1.6-.047-3.027-.209a11.706,11.706,0,0,1-2.595-.576,6.664,6.664,0,0,1-2.043-1.135A4.705,4.705,0,0,1,2252.787,351.185Zm3.219.33a3.151,3.151,0,0,0,1.894,1.543,15.18,15.18,0,0,0,3.362.857,25.245,25.245,0,0,0,3.816.258,23.417,23.417,0,0,0,3.27-.218l.758-.121a4.77,4.77,0,0,0,2.675-1.139,1.859,1.859,0,0,0,.269-2.221,4.365,4.365,0,0,0-2.79-2.316,12.335,12.335,0,0,0-5.6-.266q-.658.077-1.46.237t-1.608.361q-.805.2-1.528.408a10.68,10.68,0,0,0-1.238.425,5.32,5.32,0,0,0-1.612.97A1.014,1.014,0,0,0,2256.006,351.515Z" transform="translate(-1875.729 -214.362)" fill="#ccd258"/>
          <path id="Path_377" data-name="Path 377" d="M2282.6,380.657l-.961-3.058,1.722-.112,3.626,6.439-6.984.4.006.389q1.8.137,3.228.391a11.6,11.6,0,0,1,2.488.7,5.234,5.234,0,0,1,1.753,1.168,4.342,4.342,0,0,1,1.02,1.75,3.252,3.252,0,0,1-.03,2.451,2.591,2.591,0,0,1-1.627,1.352,3.019,3.019,0,0,1-2.1-.083,2.376,2.376,0,0,1-1.4-1.592,2.158,2.158,0,0,1,.044-1.6,1.767,1.767,0,0,1,1.142-.965,2.332,2.332,0,0,1,1.051-.076,2.887,2.887,0,0,1,.926.275l.182-.292a3.9,3.9,0,0,0-2.208-1.494,22.551,22.551,0,0,0-4.279-1q-.776-.106-1.871-.232t-2.343-.182q-1.248-.056-2.58-.068t-2.559.063l-4.142.247L2265.5,381.7Z" transform="translate(-1881.788 -229.93)" fill="#ccd258"/>
        </g>
      </g>
      <path id="Path_378" data-name="Path 378" d="M1794.521,139.1l-1.846-5.79,3.962,4.609.669-6.041,1.745,5.822,3.068-5.246-.774,6.028,4.937-3.545-3.159,5.192,5.952-1.231-5,3.458,5.938,1.3-5.972,1.127,4.9,3.6-5.914-1.4,3.01,5.28-4.833-3.684.6,6.048-2.917-5.332-1.91,5.77-.5-6.057-4.092,4.494,2.01-5.735-5.566,2.441L1793,145.78l-6.078-.034,5.607-2.344-5.538-2.5,6.076.139-4.042-4.539Z" transform="translate(-1660.228 -116.224)" fill="#ccd258"/>
      <path id="Path_379" data-name="Path 379" d="M2092.365,156.485l-.006.005,0,0,0,0,0,0,0,0,0,0,0,0,0,0-.006.006h0l0,0,0,0,0,0,0,0,0,0,0,0-.006.005h0l-.006.005,0,0,0,0,0,0,0,0,0,0-.006.005h0l-.006.006h0l0,0,0,0,0,0,0,0-.005,0v0l-.007.006h0l-.006.006h0l0,0,0,0,0,0,0,0-.006.005h0l-.007.006h0l-.006.005,0,0,0,0,0,0-.006.005h0l-.013.012h0l-.005,0v0l-.006,0h0l-.013.012h0l-.006.005h0l-.006,0h0l-.02.018h0l-.006.006h0l-.026.025h0l-.006.006h0l-.027.025h0a11.647,11.647,0,0,0-1.015,1.088l3.313,2.716a7.455,7.455,0,0,1,.848-.875l-2.821-3.224Zm-2.324,2.783a11.6,11.6,0,0,0-.845,1.73l3.993,1.552a7.252,7.252,0,0,1,.531-1.087l-3.679-2.2Zm-1.346,3.368a11.574,11.574,0,0,0-.2,1.157h0v.007h0l-.005.045h0v.007h0v.007h0l0,.037h0v.022h0v.006h0v.17h0v.009h0v.215h0v.107l0,.019v.032h0v.028h0v.006h0v.007h0v.014l4.278.247a7.317,7.317,0,0,1,.171-1.206l-4.179-.947Zm-.242,3.619q.045.5.133.993h0v.008h0l0,.009h0l0,.026h0l0,.008v.034h0l0,.008v.046l0,.012v.018l0,.005v.008h0l.005.028h0l0,.008h0l0,.008h0c.044.227.1.453.155.677l4.145-1.084a7.328,7.328,0,0,1-.208-1.2l-4.268.383Zm.886,3.517h0l0,0v0l0,0v0l0,0v0l0,.011h0l0,0,0,0,0,0v0l0,0,0,0v.006l0,.009,0,0v0l0,0v.011l0,0,0,0,0,0v0l0,.008v0l0,0,0,0v0l0,0,0,0v0l0,0v0l0,.007v0l0,.006v0l0,.005v0l0,0v0l0,.006v0l0,.008h0l0,.008v0l0,.006v0l0,.006v0l0,.007h0l.007.016h0l0,.007v0l0,.006v0l0,.007h0l.01.024h0l0,.007h0l0,.007h0l.011.024h0l0,.008h0l.015.032h0l0,.008h0l0,.007h0l.016.032h0l.038.081h0l.024.048h0l.016.032h0l0,.008h0l.02.04h0l.016.032h0l0,.008h0l0,.008h0l.012.024h0l0,.008h0l0,.007h0l.012.024h0l0,.007h0l0,.007h0l.012.024h0l0,.007v0l0,.006h0l0,.007h0l.009.016h0l0,.008h0l0,.007h0l0,.007h0l.012.023v0l0,.006h0l0,.006v0l.008.015h0l0,.006v0l0,.006v0l0,.006v0l0,.006h0l0,.008h0l0,.007v0l0,0v0l0,0v0l0,.006v0l0,.007v0l0,.006,0,0,0,0v0l0,0,0,0,0,0v0l0,.007v0l0,.005,0,0,0,0v0l0,0,0,0,0,0v0l0,0,0,0,0,0v0l0,0v0l0,0,0,0,0,0,0,0h0l.01.017v0l0,0,0,0,0,0v0l0,0h0l.011.019h0l0,.005v0l0,0,0,0,0,.005h0l.01.018h0l0,.005v0l0,.005v0l.014.025h0l0,.006h0l0,.005h0l.019.032h0l0,.006h0l.022.039h0q.112.189.231.375l3.6-2.319a7.278,7.278,0,0,1-.568-1.068l-3.938,1.686Zm1.933,3.068,3.225-2.82-3.225,2.82Zm0,0,3.227-2.818-3.225,2.821h0l.006.006,0,0,0,0,0,0,0,0,0,0,0,0v0l.006.006,0,0,0,0,0,0,0,0v0l0,0,0,0,.006.006h0l.005.006,0,0,0,0,0,0,0,0,0,0,0,.006h0l.005.006v0l0,0,0,0,0,0,0,0,0,0,0,0,.006.006,0,0,0,0,0,0,0,0,0,0,0,0,0,0,0,0,0,0,.005.006,0,0,0,0,0,0,0,0,0,0,0,0v0l.006.006,0,0,0,0,0,0,0,0,0,0,0,0,0,0,0,0,0,0,0,0,0,0,0,0,0,0,0,0,0,0,0,0,0,0,.006.006,0,0,0,0,0,0,0,0,0,0,0,0,0,0,0,0,.005.005,0,0,0,0,0,0,0,0,0,0,0,0,0,0,0,0,0,0,0,0,0,0,0,0,0,0,0,0,0,0,.012.013,0,0,0,0v0l0,0,0,0,0,0,0,0,.008.009h0l0,0,0,0,0,0,0,0,0,0h0l.014.014h0l0,0h0l0,0h0l.019.02h0l0,0h0l0,0h0l.015.016h0l.005,0h0l0,0h0l.021.021h0l.006,0h0l.026.027h0q.345.349.712.662h0l.028.024h0l.005,0h0l.005,0h0l.016.013h0l0,0,0,0,0,0h0l.013.012,0,0,0,0,0,0,0,0,0,0,0,0,0,0,0,0,0,0,0,0,0,0,0,0,0,0,0,0,.005,0h0l.007.005h0l.006,0v0l.005,0h0l.006,0h0l.013.01,2.717-3.312a7.346,7.346,0,0,1-.873-.847h0l-3.227,2.818Zm4.98-1.352-2.2,3.678a11.566,11.566,0,0,0,1.73.845l1.553-3.992a7.329,7.329,0,0,1-1.086-.531Zm2.119.847-.949,4.178.144.032h.01l.007,0h0l.017,0h0l.007,0h.04l.007,0h.035l.028.006h.008l.007,0h0c.145.029.29.055.437.078h.016l.029,0h.039l.011,0h.091l.025,0h.027c.272.038.546.066.82.084h.082l.022,0h0l.247-4.277a7.4,7.4,0,0,1-1.206-.171Zm2.288.154.382,4.267c.2-.018.4-.041.6-.069h.015l.036-.005h.031l.019,0h.142l.016,0h.035l.026,0h.018l.008,0h0l.025,0h0l.008,0h0l.007,0h.01l.025,0h0l.008,0h0l.007,0h0l.008,0h0l.034-.006h.026l.017,0h0l.008,0h.019l.007,0h0l.008,0h0l.007,0h0l.008,0h.035l.009,0h.044l.007,0h.046l.02,0h.024c.176-.037.353-.079.528-.125l-1.083-4.145a7.362,7.362,0,0,1-1.2.208Zm2.214-.556,1.685,3.939h0l0,0,0,0,.007,0,0,0,0,0,0,0,0,0h0l0,0h0l0,0h0l.02-.009h0l.006,0h0l.007,0h0a11.471,11.471,0,0,0,1.151-.582h0l.032-.019h0l.005,0h0l0,0h0l.015-.009,0,0,0,0,0,0,0,0,0,0,0,0,.005,0h0l.007,0h0l.008,0h0l.006,0h0l.005,0h0l.007,0h0c.114-.068.226-.137.337-.209l-2.318-3.6a7.243,7.243,0,0,1-1.068.568Zm1.938-1.223,2.816,3.229h0l-2.816-3.229Zm0,0,2.82,3.225h0l-2.82-3.225Zm.849-.875a7.368,7.368,0,0,1-.846.872l2.821,3.224h0l.007-.005,0,0,0,0,0,0,0,0,0,0,0,0h0l.007-.006h0l0,0,0,0,0,0,0,0,0,0,0,0,.006-.005h0l.005,0,0,0,0,0,0,0,0,0,0,0,.013-.012h0l.005,0,0,0,0,0,0,0,0,0h0l.006-.006h0l.005,0,0,0,0,0,0,0,0,0v0l.013-.012h0l.005,0,0,0,.005,0v0l.013-.012h0l.006,0v0l0,0,0,0,.005,0h0l.006-.006h0l.006-.005v0l.005,0,0,0,0,0h0l.013-.012v0l.006,0h0l.006,0v0l.013-.012h0l.006-.006h0l.006-.005h0l.006-.005h0l.014-.012h0l.006-.006h0l.006-.006h0l.019-.019h0l.006-.005h0l.02-.019h0l.007-.006h0l.006-.006h0l.021-.019h0l.006-.006h0l.02-.019h0l.006-.006h0a11.457,11.457,0,0,0,.9-.974l-3.312-2.719Zm1.151-1.966a7.277,7.277,0,0,1-.532,1.087l3.677,2.2a11.376,11.376,0,0,0,.591-1.126h0l0-.007h0l.015-.031h0l0-.007h0l0-.007h0l.011-.024h0l0-.007h0l0-.006v0l0-.006h0l.011-.024h0l0-.006v0l0-.006v0l0-.006h0l.007-.016h0l0-.007v0l0-.006v0l0-.006v0l0-.006v0l.007-.016h0l0-.006v0l0,0v0l0,0v-.009l0,0,0-.008h0l0-.007v0l0-.005v0l0,0v0l0-.005v0l0-.006v0l0-.008h0l0-.007v0l0-.006v0l0-.005v-.01l0-.007h0l.006-.016v0l0-.006v0l0-.006v0l0-.007h0l.006-.016h0l0-.008h0l0-.006v0l0-.006v0l0-.008h0l.01-.024v0l0-.007h0l0-.008h0l.016-.041h0l0-.008h0c.01-.026.021-.052.031-.078l-3.992-1.555Zm.487-2.238a7.415,7.415,0,0,1-.171,1.206l4.177.95q.044-.2.082-.394h0c.011-.057.022-.114.031-.171h0a11.509,11.509,0,0,0,.153-1.277h0v-.008h0v-.008h0v-.047l-4.277-.249Zm-.224-2.279a7.307,7.307,0,0,1,.208,1.2l4.268-.381c-.02-.213-.044-.425-.075-.637h0v-.008h0v-.008h0l0-.026h0v-.026l0-.025h0v-.042h0v-.1l0-.017v-.019l0,0v-.016h0l0-.013v-.039h0l0-.02v-.026l0-.026v-.034l0-.017v-.042l0-.009v-.1l0-.008v-.035l-.005-.025h0l0-.007v-.01l0-.007h0l-.005-.025h0l0-.008h0l0-.008h0q-.053-.252-.119-.5l-4.145,1.082Zm-.915-2.086a7.278,7.278,0,0,1,.567,1.069l3.939-1.685c-.034-.079-.069-.158-.1-.236h0l-.01-.024v0l0-.005v0l0,0v0l0,0v0l0,0,0-.006v0l0,0v0l0,0v0l0,0v0l-.015-.033h0a11.357,11.357,0,0,0-.59-1.1h0l0-.006h0l0-.006h0l-.008-.013h0l0,0,0,0,0,0,0,0,0,0,0,0,0,0,0,0v0l0-.007h0l0-.007v0l0-.005v0l0-.006h0l-.1-.156-3.6,2.317Zm-.656-.871,3.231-2.814h0L2105.5,160.4Zm0,0,3.227-2.818h0L2105.5,160.4Zm1.844-4.16-2.719,3.311a7.383,7.383,0,0,1,.871.845l3.224-2.821-.006-.006,0,0,0,0,0,0,0,0,0,0,0,0v0l-.006-.006v0l0,0,0,0,0,0,0,0,0,0,0,0-.006-.006v0l0,0v0l0,0,0,0,0,0,0,0-.011-.013v0l0,0,0,0,0,0,0,0,0,0,0,0-.006-.006,0,0,0,0,0,0,0,0,0,0,0,0v0l-.006-.006h0l0-.005,0,0,0,0,0,0,0,0,0,0-.005-.006h0l-.006-.006v0l0,0,0,0,0,0,0,0,0,0,0,0-.006-.006,0,0,0,0,0,0,0,0,0,0,0,0,0,0,0,0,0,0,0,0,0,0,0,0,0,0,0,0,0,0,0,0,0,0,0,0,0,0,0,0,0,0,0,0,0,0,0,0,0,0-.005-.005,0,0,0,0,0,0,0,0,0,0,0,0,0,0h0l-.008-.008,0,0,0,0,0,0,0,0,0,0,0,0,0,0-.008-.009h0l0,0v0l0,0,0,0,0,0v0l-.014-.015h0l0,0v0l0,0h0l-.02-.021h0l-.005,0h0l-.021-.021h0l0,0h0l-.026-.027h0a11.668,11.668,0,0,0-.923-.845Zm-3.129-1.832-1.556,3.992a7.237,7.237,0,0,1,1.087.532l2.2-3.677q-.184-.11-.371-.212h0l-.007,0h0l-.046-.025h0l-.031-.017h0l-.007,0h0l-.007,0h0l-.03-.016h0l-.006,0h0l-.007,0h0l-.022-.012h0l-.008,0h0l-.006,0h0l-.006,0h0l-.022-.012h0l-.007,0h0l-.006,0h0l-.007,0h0l-.016-.008h0l-.007,0h0l-.007,0h0l-.006,0h0l-.006,0h0l-.015-.008h0l-.007,0h0l-.006,0h0l-.005,0h0l-.006,0h0l-.015-.007h0l-.006,0h0l-.006,0h0l-.006,0,0,0-.005,0,0,0-.008,0h0l-.007,0h0l-.005,0,0,0,0,0,0,0,0,0h0l-.006,0h0l-.007,0h0l-.006,0,0,0-.005,0,0,0,0,0,0,0-.005,0h0l-.006,0h0l-.007,0h0l0,0,0,0,0,0,0,0,0,0,0,0,0,0,0,0,0,0,0,0-.007,0,0,0,0,0,0,0,0,0,0,0,0,0,0,0,0,0,0,0,0,0-.007,0,0,0,0,0,0,0,0,0,0,0,0,0,0,0,0,0,0,0,0,0h0l-.01,0h0l0,0h0l0,0,0,0,0,0h0l0,0h0l-.018-.008h0l-.005,0h0l-.005,0h0l0,0h0l0,0h0l-.019-.009h0l-.006,0h0l-.006,0h0l-.005,0h0l-.033-.015h0l-.007,0h0l-.006,0h0l-.027-.012h0l-.007,0h0l-.006,0h0q-.26-.117-.525-.22Zm-3.543-.773-.25,4.277a7.414,7.414,0,0,1,1.206.171l.95-4.177a11.667,11.667,0,0,0-1.906-.271Zm-3.61.355,1.081,4.145a7.375,7.375,0,0,1,1.2-.207l-.379-4.267c-.245.022-.488.052-.731.089h0l-.044.006h-.023l-.021,0h-.089l-.025,0h0l-.007,0h-.01q-.476.082-.946.2Zm-3.322,1.456,2.317,3.6a7.218,7.218,0,0,1,1.069-.567l-1.684-3.94q-.341.146-.674.315h0l-.032.016h0l-.007,0h0l-.008,0h0l-.024.012h0l-.006,0h0l-.007,0h0l-.023.012h0l-.007,0h0l-.006,0h0l-.023.012h0l-.006,0h0l-.006,0h0l-.006,0h0l-.016.008h0l-.006,0,0,0-.006,0h0l-.006,0h0l-.007,0h0l-.006,0,0,0,0,0,0,0,0,0,0,0,0,0,0,0,0,0,0,0-.006,0,0,0,0,0,0,0,0,0,0,0,0,0,0,0,0,0-.009,0h0l0,0,0,0,0,0,0,0,0,0h0l0,0h0l-.018.01h0l-.006,0h0l-.006,0h0l-.006,0h0l-.025.014h0l-.006,0h0c-.209.117-.415.24-.618.371Zm-1.378,1.038,2.821,3.224.007-.005-2.818-3.227,0,0-.006.005Z" transform="translate(-1799.809 -126.297)" fill="#ccd258"/>
    </g>
  </g>
</svg>
